<svg width="80" height="80" viewBox="0 0 80 80" fill="none" xmlns="http://www.w3.org/2000/svg">
  <path d="M78.6544 40.0001C78.6544 61.3484 61.3482 78.6545 40 78.6545C18.6517 78.6545 1.34558 61.3484 1.34558 40.0001C1.34558 18.6519 18.6517 1.3457 40 1.3457C61.3482 1.3457 78.6544 18.6519 78.6544 40.0001Z" fill="#FDD33E" stroke="black"/>
  <path d="M36.675 28.5583C37.9115 30.4172 38.4904 31.1079 39.1838 31.9352C39.3209 32.0987 39.4624 32.2675 39.6143 32.4518L40.0001 32.9195L40.3858 32.4518C40.5378 32.2675 40.6793 32.0987 40.8163 31.9352C41.5098 31.1078 42.0887 30.4172 43.3254 28.558C44.5433 26.7381 45.7181 24.658 46.5905 22.6839C47.456 20.7254 48.0504 18.8126 48.0504 17.3476C48.0504 12.8734 44.4742 9.29723 40.0001 9.29723C35.5259 9.29723 31.9497 12.8734 31.9497 17.3476C31.9497 18.8126 32.5442 20.7254 33.4097 22.6839C34.2821 24.6581 35.457 26.7383 36.675 28.5583ZM36.675 28.5583C36.6748 28.558 36.6746 28.5577 36.6744 28.5574L37.0907 28.2805L36.6751 28.5585C36.6751 28.5584 36.675 28.5584 36.675 28.5583ZM33.2606 30.7598L33.2606 30.7598L33.2583 30.7563C30.6305 26.8184 27.9162 22.1056 27.9162 17.3476C27.9162 10.7026 33.3551 5.26367 40.0001 5.26367C46.6451 5.26367 52.084 10.7026 52.084 17.3476C52.084 22.1056 49.3696 26.821 46.742 30.7535L46.7396 30.7573C46.5401 31.0617 46.3487 31.3168 46.1487 31.5832C46.0132 31.7638 45.8737 31.9496 45.7253 32.1595L45.1673 32.9482H46.1335H59.6343V39.8192L57.2949 39.5035L57.2918 39.5031L42.8234 37.4574L42.214 37.3712L42.2545 37.9853L44.5345 72.5877L44.5347 72.591L44.6617 74.7335H35.3385L35.4654 72.5935L35.4656 72.5903L37.7456 37.9853L37.7861 37.3712L37.1767 37.4574L22.7084 39.5031L22.7052 39.5035L20.3658 39.8192V32.9482H33.8642H34.8262L34.2734 32.1609C34.1341 31.9625 33.9902 31.7705 33.8509 31.5844C33.8186 31.5413 33.7866 31.4986 33.7549 31.4561C33.5841 31.2273 33.4192 31.0019 33.2606 30.7598Z" fill="#A67C00" stroke="black"/>
  </svg>
  